<?xml version="1.0" standalone="no"?>
<!DOCTYPE svg PUBLIC "-//W3C//DTD SVG 20010904//EN"
 "http://www.w3.org/TR/2001/REC-SVG-20010904/DTD/svg10.dtd">
<svg version="1.0" xmlns="http://www.w3.org/2000/svg"
 width="844.000000pt" height="844.000000pt" viewBox="0 0 844.000000 844.000000"
 preserveAspectRatio="xMidYMid meet">
<metadata>
Created by potrace 1.11, written by Peter Selinger 2001-2013
</metadata>
<g transform="translate(0.000000,844.000000) scale(0.100000,-0.100000)"
fill="#000000" stroke="none">
<path d="M3570 7890 c-11 -7 -14 -43 -15 -177 0 -141 -4 -182 -23 -256 -13
-49 -20 -97 -17 -108 9 -29 46 -40 92 -27 57 16 90 43 109 93 16 43 16 51 0
133 -15 78 -109 336 -125 347 -4 2 -13 0 -21 -5z"/>
<path d="M4860 7450 c-1 -3 -2 -39 -4 -80 -1 -41 -6 -96 -11 -122 -8 -47 -7
-48 19 -48 34 0 66 33 66 68 0 31 -44 160 -60 176 -5 5 -10 8 -10 6z"/>
<path d="M2360 7223 c0 -37 -3 -92 -6 -120 -7 -51 -6 -53 18 -53 65 0 77 48
41 154 -36 104 -53 110 -53 19z"/>
<path d="M5730 6991 c0 -64 -7 -138 -16 -177 -19 -82 -8 -101 50 -90 94 18
100 111 21 309 -41 101 -55 91 -55 -42z"/>
<path d="M1821 6980 c-7 -32 -9 -190 -3 -190 18 0 32 26 32 60 0 29 -26 145
-29 130z"/>
<path d="M4113 6773 c-27 -33 -32 -36 -47 -24 -20 17 -17 19 -45 -50 -14 -36
-49 -87 -100 -145 -74 -84 -83 -91 -157 -118 -246 -92 -616 -269 -844 -406
-674 -403 -1190 -932 -1524 -1560 l-64 -120 30 -25 c16 -14 34 -25 39 -25 6 0
47 -29 92 -64 178 -138 354 -237 537 -301 177 -61 378 -105 483 -105 l44 0 0
40 c0 21 8 51 17 64 l16 25 122 -59 c210 -101 387 -149 638 -171 162 -15 318
-4 311 21 -14 49 -11 90 8 128 l21 41 67 -31 c38 -17 90 -38 117 -47 43 -15
54 -25 88 -81 47 -79 76 -169 88 -275 6 -44 28 -773 50 -1620 23 -847 43
-1559 46 -1582 l5 -43 93 0 93 0 -3 88 c-10 211 -96 3414 -92 3417 3 3 59 1
125 -4 111 -9 321 0 344 15 5 3 5 13 -1 24 -5 10 -10 36 -10 57 l0 38 262 0
c284 0 280 0 533 65 83 21 213 48 290 60 171 27 407 86 541 135 144 54 349
157 467 235 l102 68 22 -20 c23 -21 43 -17 75 19 15 17 13 24 -44 123 -443
768 -1149 1363 -2113 1778 -127 55 -424 168 -534 204 l-43 14 -51 127 c-29 70
-54 127 -58 127 -3 0 -19 -17 -36 -37z m295 -689 c820 -273 1574 -726 2155
-1294 l149 -145 -29 -43 c-95 -140 -325 -323 -519 -413 -122 -56 -408 -153
-351 -118 16 10 16 12 -8 40 -14 17 -28 42 -31 56 -7 25 0 110 11 149 5 14 1
23 -9 27 -11 4 -40 -18 -93 -72 -150 -151 -365 -263 -601 -310 -101 -21 -342
-39 -342 -27 0 5 9 21 20 36 11 16 17 35 14 44 -3 9 -7 16 -9 16 -2 0 -41 -18
-87 -40 -113 -54 -305 -100 -419 -100 -27 0 -29 3 -29 35 0 19 -2 35 -5 35 -3
0 -37 -16 -77 -36 -63 -32 -76 -35 -122 -29 -124 16 -286 60 -286 78 0 25 -21
36 -46 25 -18 -9 -34 -7 -73 10 -47 19 -50 19 -66 2 -15 -16 -14 -18 15 -30
16 -7 30 -16 30 -21 0 -4 -24 -15 -52 -24 -179 -53 -444 -65 -625 -26 -95 20
-269 75 -285 90 -4 3 6 15 22 26 31 21 35 31 22 52 -6 9 -17 9 -50 -2 -80 -28
-184 -38 -347 -32 -90 3 -195 12 -240 22 -177 37 -367 115 -518 214 -43 28
-82 49 -88 46 -60 -38 171 227 390 445 201 201 362 341 566 495 436 328 948
598 1474 779 l159 55 58 -41 57 -41 50 56 c27 31 56 57 64 57 7 0 76 -21 151
-46z"/>
<path d="M2500 6740 c-13 -7 -14 -24 -8 -102 7 -105 -5 -263 -27 -335 -21 -69
-19 -109 6 -127 37 -25 111 -2 159 49 23 24 25 34 24 113 0 67 -7 105 -28 167
-35 101 -96 245 -105 245 -3 0 -13 -5 -21 -10z"/>
<path d="M5036 6633 c-3 -49 -9 -103 -12 -120 -6 -31 -5 -33 25 -33 42 0 66
36 57 89 -7 47 -46 151 -56 151 -4 0 -10 -39 -14 -87z"/>
<path d="M6976 6561 c-3 -4 -6 -71 -6 -147 0 -101 -5 -162 -20 -224 -17 -77
-18 -87 -4 -108 14 -21 21 -23 52 -17 145 27 158 147 44 417 -34 81 -52 102
-66 79z"/>
<path d="M1165 6367 c-16 -13 -18 -23 -11 -110 7 -104 -6 -253 -29 -331 -37
-122 5 -165 112 -116 109 49 111 174 7 433 -58 144 -56 140 -79 124z"/>
<path d="M6279 6075 c0 -6 0 -31 1 -57 1 -25 -4 -74 -11 -108 -13 -68 -6 -87
30 -75 33 10 51 34 51 65 0 50 -67 215 -71 175z"/>
<path d="M1527 5553 c-4 -3 -7 -32 -7 -64 0 -32 -8 -93 -17 -135 -14 -65 -14
-77 -2 -85 20 -12 50 -1 78 29 28 31 25 72 -14 183 -27 80 -29 82 -38 72z"/>
<path d="M352 5275 c-23 -85 -31 -133 -36 -208 -3 -44 -15 -117 -26 -164 -12
-46 -18 -93 -15 -104 11 -35 47 -43 104 -24 100 33 127 103 92 246 -18 80 -65
210 -96 268 l-13 26 -10 -40z"/>
<path d="M7329 5165 c-1 -5 -3 -37 -4 -70 0 -33 -5 -86 -9 -117 -8 -54 -7 -58
12 -58 56 0 78 36 62 105 -11 49 -57 155 -61 140z"/>
<path d="M8075 5032 c-6 -4 -10 -79 -10 -187 0 -143 -4 -191 -18 -234 -20 -64
-22 -122 -5 -139 34 -34 147 9 180 68 37 67 10 211 -79 417 -34 79 -45 92 -68
75z"/>
</g>
</svg>
